<svg width="589" height="130" viewBox="0 0 589 130" fill="none" xmlns="http://www.w3.org/2000/svg">
<path d="M209.088 39.8081C206.016 30.9761 199.36 25.3441 186.432 25.3441C172.992 25.3441 159.552 35.3281 159.552 55.2961C159.552 72.1921 168.768 85.5041 190.144 85.5041C196.16 85.5041 202.688 84.4801 207.424 82.3041V66.9441H180.8V48.7681H229.44V94.9761C222.656 99.5841 207.808 104.96 189.888 104.96C155.584 104.96 136 82.9441 136 55.2961C136 25.3441 158.912 5.63206 187.2 5.63206C208.064 5.63206 226.24 15.1041 230.464 33.0241L209.088 39.8081Z" fill="#1E1E1E"/>
<path d="M275.566 53.7601C267.886 53.7601 261.87 58.7521 261.87 66.1761V102.912H239.214V34.8161H261.87V45.1841C265.966 37.6321 273.006 32.7681 281.966 32.7681C284.654 32.7681 286.318 32.8961 288.11 33.2801L286.83 55.4241C284.014 54.4001 281.198 53.7601 275.566 53.7601Z" fill="#1E1E1E"/>
<path d="M316.567 104.96C298.775 104.96 285.207 89.6001 285.207 68.8641C285.207 48.1281 298.775 32.7681 316.567 32.7681C326.807 32.7681 335.127 37.5041 338.583 45.0561V34.8161H361.111V102.912H338.583V92.6721C336.407 100.224 327.575 104.96 316.567 104.96ZM308.759 68.8641C308.759 78.8481 314.647 86.0161 323.607 86.0161C332.567 86.0161 338.583 78.8481 338.583 68.8641C338.583 58.7521 332.567 51.7121 323.607 51.7121C314.647 51.7121 308.759 58.7521 308.759 68.8641Z" fill="#1E1E1E"/>
<path d="M370.844 34.8161H393.372V45.0561C396.828 37.5041 405.148 32.7681 415.388 32.7681C433.18 32.7681 446.748 48.1281 446.748 68.8641C446.748 89.6001 433.18 104.96 415.388 104.96C404.38 104.96 395.548 100.224 393.372 92.6721V129.536H370.844V34.8161ZM393.372 68.8641C393.372 78.8481 399.388 86.0161 408.348 86.0161C417.308 86.0161 423.196 78.8481 423.196 68.8641C423.196 58.7521 417.308 51.7121 408.348 51.7121C399.388 51.7121 393.372 58.7521 393.372 68.8641Z" fill="#1E1E1E"/>
<path d="M453.927 6.14407H476.711V102.912H453.927V6.14407Z" fill="#1E1E1E"/>
<path d="M485.938 34.8161H508.722V102.912H485.938V34.8161ZM483.89 12.9281C483.89 6.01607 489.522 0.768066 497.33 0.768066C505.138 0.768066 510.77 6.01607 510.77 12.9281C510.77 19.8401 505.138 25.0881 497.33 25.0881C489.522 25.0881 483.89 19.8401 483.89 12.9281Z" fill="#1E1E1E"/>
<path d="M510.508 102.912L535.724 68.2241L511.276 34.8161H538.156L549.676 52.4801L561.452 34.8161H587.564L562.732 68.2241L588.332 102.912H561.452L548.908 83.8401L536.62 102.912H510.508Z" fill="#1E1E1E"/>
<path fill-rule="evenodd" clip-rule="evenodd" d="M78.9103 64.464C90.86 62.587 100 52.2449 100 39.7681C100 25.9609 88.8071 14.7681 75 14.7681C62.5228 14.7681 52.1804 23.9086 50.3039 35.8588C46.7194 56.0765 41.3085 61.4875 21.0908 65.0719C9.14054 66.9485 0 77.2908 0 89.7681C0 103.575 11.1929 114.768 25 114.768C37.4769 114.768 47.819 105.628 49.696 93.6784C53.2805 73.4595 58.6914 68.0485 78.9103 64.464Z" fill="#FF6F0F"/>
</svg>
