<svg width="589" height="129" viewBox="0 0 589 129" fill="none" xmlns="http://www.w3.org/2000/svg">
<path d="M209.088 39.04C206.016 30.208 199.36 24.576 186.432 24.576C172.992 24.576 159.552 34.56 159.552 54.528C159.552 71.424 168.768 84.736 190.144 84.736C196.16 84.736 202.688 83.712 207.424 81.536V66.176H180.8V48H229.44V94.208C222.656 98.816 207.808 104.192 189.888 104.192C155.584 104.192 136 82.176 136 54.528C136 24.576 158.912 4.864 187.2 4.864C208.064 4.864 226.24 14.336 230.464 32.256L209.088 39.04Z" fill="#F8F8F8"/>
<path d="M275.566 52.992C267.886 52.992 261.87 57.984 261.87 65.408V102.144H239.214V34.048H261.87V44.416C265.966 36.864 273.006 32 281.966 32C284.654 32 286.318 32.128 288.11 32.512L286.83 54.656C284.014 53.632 281.198 52.992 275.566 52.992Z" fill="#F8F8F8"/>
<path d="M316.567 104.192C298.775 104.192 285.207 88.832 285.207 68.096C285.207 47.36 298.775 32 316.567 32C326.807 32 335.127 36.736 338.583 44.288V34.048H361.111V102.144H338.583V91.904C336.407 99.456 327.575 104.192 316.567 104.192ZM308.759 68.096C308.759 78.08 314.647 85.248 323.607 85.248C332.567 85.248 338.583 78.08 338.583 68.096C338.583 57.984 332.567 50.944 323.607 50.944C314.647 50.944 308.759 57.984 308.759 68.096Z" fill="#F8F8F8"/>
<path d="M370.844 34.048H393.372V44.288C396.828 36.736 405.148 32 415.388 32C433.18 32 446.748 47.36 446.748 68.096C446.748 88.832 433.18 104.192 415.388 104.192C404.38 104.192 395.548 99.456 393.372 91.904V128.768H370.844V34.048ZM393.372 68.096C393.372 78.08 399.388 85.248 408.348 85.248C417.308 85.248 423.196 78.08 423.196 68.096C423.196 57.984 417.308 50.944 408.348 50.944C399.388 50.944 393.372 57.984 393.372 68.096Z" fill="#F8F8F8"/>
<path d="M453.927 5.376H476.711V102.144H453.927V5.376Z" fill="#F8F8F8"/>
<path d="M485.938 34.048H508.722V102.144H485.938V34.048ZM483.89 12.16C483.89 5.248 489.522 0 497.33 0C505.138 0 510.77 5.248 510.77 12.16C510.77 19.072 505.138 24.32 497.33 24.32C489.522 24.32 483.89 19.072 483.89 12.16Z" fill="#F8F8F8"/>
<path d="M510.508 102.144L535.724 67.456L511.276 34.048H538.156L549.676 51.712L561.452 34.048H587.564L562.732 67.456L588.332 102.144H561.452L548.908 83.072L536.62 102.144H510.508Z" fill="#F8F8F8"/>
<path fill-rule="evenodd" clip-rule="evenodd" d="M78.9103 63.696C90.86 61.819 100 51.4769 100 39C100 25.1929 88.8071 14 75 14C62.5228 14 52.1804 23.1405 50.3039 35.0908C46.7194 55.3085 41.3085 60.7194 21.0908 64.3039C9.14054 66.1804 0 76.5228 0 89C0 102.807 11.1929 114 25 114C37.4769 114 47.819 104.86 49.696 92.9103C53.2805 72.6914 58.6914 67.2805 78.9103 63.696Z" fill="#FF6F0F"/>
</svg>
